<svg width="38" height="38" viewBox="0 0 38 38" fill="none" xmlns="http://www.w3.org/2000/svg">
<rect width="38" height="38" rx="4" fill="#F5F5F5"/>
<path d="M10.256 24.128C9.92533 24.128 9.66933 24.0373 9.488 23.856C9.31733 23.664 9.232 23.4027 9.232 23.072V13.76C9.232 13.4187 9.32267 13.1627 9.504 12.992C9.68533 12.8107 9.94133 12.72 10.272 12.72H14.128C15.3653 12.72 16.32 13.0187 16.992 13.616C17.664 14.2027 18 15.0293 18 16.096C18 16.7893 17.8453 17.3867 17.536 17.888C17.2373 18.3893 16.8 18.7733 16.224 19.04C15.648 19.3067 14.9493 19.44 14.128 19.44L14.272 19.2H14.8C15.2373 19.2 15.616 19.3067 15.936 19.52C16.2667 19.7333 16.5547 20.0693 16.8 20.528L18 22.752C18.128 22.976 18.1867 23.1947 18.176 23.408C18.1653 23.6213 18.0853 23.7973 17.936 23.936C17.7867 24.064 17.568 24.128 17.28 24.128C16.992 24.128 16.7573 24.0693 16.576 23.952C16.3947 23.824 16.2347 23.632 16.096 23.376L14.48 20.4C14.288 20.0373 14.0587 19.7973 13.792 19.68C13.536 19.552 13.2053 19.488 12.8 19.488H11.28V23.072C11.28 23.4027 11.1947 23.664 11.024 23.856C10.8533 24.0373 10.5973 24.128 10.256 24.128ZM11.28 17.968H13.776C14.512 17.968 15.0667 17.8187 15.44 17.52C15.824 17.2107 16.016 16.752 16.016 16.144C16.016 15.5467 15.824 15.0987 15.44 14.8C15.0667 14.4907 14.512 14.336 13.776 14.336H11.28V17.968ZM20.6808 27.008C20.3608 27.008 20.1154 26.9227 19.9448 26.752C19.7741 26.5813 19.6888 26.3307 19.6888 26V17.056C19.6888 16.7253 19.7741 16.4747 19.9448 16.304C20.1154 16.1333 20.3554 16.048 20.6648 16.048C20.9848 16.048 21.2301 16.1333 21.4008 16.304C21.5714 16.4747 21.6568 16.7253 21.6568 17.056V18.304L21.4808 17.824C21.6408 17.28 21.9661 16.8427 22.4568 16.512C22.9581 16.1813 23.5394 16.016 24.2008 16.016C24.8834 16.016 25.4808 16.1813 25.9928 16.512C26.5154 16.8427 26.9208 17.312 27.2088 17.92C27.4968 18.5173 27.6408 19.2373 27.6408 20.08C27.6408 20.912 27.4968 21.6373 27.2088 22.256C26.9208 22.864 26.5208 23.3333 26.0088 23.664C25.4968 23.9947 24.8941 24.16 24.2008 24.16C23.5501 24.16 22.9794 24 22.4888 23.68C21.9981 23.3493 21.6674 22.9227 21.4968 22.4H21.6888V26C21.6888 26.3307 21.5981 26.5813 21.4168 26.752C21.2461 26.9227 21.0008 27.008 20.6808 27.008ZM23.6408 22.64C24.0354 22.64 24.3821 22.544 24.6808 22.352C24.9794 22.16 25.2088 21.8773 25.3688 21.504C25.5394 21.12 25.6248 20.6453 25.6248 20.08C25.6248 19.2267 25.4434 18.592 25.0808 18.176C24.7181 17.7493 24.2381 17.536 23.6408 17.536C23.2461 17.536 22.8994 17.632 22.6008 17.824C22.3021 18.0053 22.0674 18.288 21.8968 18.672C21.7368 19.0453 21.6568 19.5147 21.6568 20.08C21.6568 20.9227 21.8381 21.5627 22.2008 22C22.5634 22.4267 23.0434 22.64 23.6408 22.64Z" fill="#0A0D12"/>
</svg>
